:SAMPLES-PER-SECOND 25
:FULLY-SPECIFIED
:DEGREES
457
root  11.4204 66.3119 27.7446 -4.54104 -18.5031 0.898558
RightUpLeg  2.18981 5.81231 0.0198621
RightLeg  26.5484 13.4802 7.01672
RightFoot  -11.4068 -0.0803203 -5.74928
RightToes  2.84633e-005 7.89722e-005 -0.000426369
Spine  2.22166 0.837102 -0.456222
Spine1  4.29422 1.34641 1.37251
HEad  28.6162 -2.69977 -4.9633
LeftShoulder1  -3.88251e-019 0 -3.92111e-022
LeftArm  -38.7703 9.8003 -82.769
LeftForeArm  31.3939 1.94161 2.15243
LeftHand  -0.751048 -4.34971 9.22436
RightShoulder  7.45443e-017 -2.42657e-020 1.96277e-018
RightArm  -20.0427 -12.0906 74.0822
RightForeArm  28.13 9.65095 10.3077
RightHand  -1.21853 10.4002 -9.32117
LeftUpLeg  -10.4973 -0.229151 -1.8035
LeftLeg  7.77212 -6.41622 -0.0524458
LeftFoot  0.396882 -0.232208 2.22955
LeftToes  3.91355e-005 3.11907e-005 -4.10385e-006
458
root  11.5595 66.3722 28.6817 -4.07635 -19.2818 1.64148
RightUpLeg  1.86128 4.44937 -2.07782
RightLeg  28.2379 15.3868 8.58278
RightFoot  -10.5401 -0.0346616 -5.20357
RightToes  2.84633e-005 7.89722e-005 -0.000426369
Spine  1.85306 0.821748 -0.971736
Spine1  3.53696 1.29518 0.573955
HEad  28.3555 -3.90076 -4.25476
LeftShoulder1  -3.88251e-019 0 -3.92111e-022
LeftArm  -38.4101 9.93253 -82.4513
LeftForeArm  31.7712 1.94299 1.956
LeftHand  -0.767062 -4.38412 9.38351
RightShoulder  7.45443e-017 -2.42657e-020 1.96277e-018
RightArm  -23.1851 -13.7933 74.0714
RightForeArm  30.31 8.24955 9.64327
RightHand  -1.18921 10.0716 -9.28895
LeftUpLeg  -9.57919 -0.355958 -2.62139
LeftLeg  7.4478 -5.35869 -0.617368
LeftFoot  -1.23882 -0.139239 1.65538
LeftToes  3.91355e-005 3.11907e-005 -4.10385e-006
459
root  11.7342 66.3342 29.5859 -3.9084 -20.0921 2.03026
RightUpLeg  1.32756 3.05181 -3.8492
RightLeg  31.073 16.9624 10.5472
RightFoot  -9.40817 0.0100695 -4.35729
RightToes  2.84633e-005 7.89722e-005 -0.000426369
Spine  1.73852 0.895142 -1.28763
Spine1  3.29364 1.39479 0.121161
HEad  27.8823 -5.37093 -4.08902
LeftShoulder1  -3.88251e-019 0 -3.92111e-022
LeftArm  -38.1322 9.14735 -82.3416
LeftForeArm  31.9975 1.94058 1.90525
LeftHand  -0.769696 -4.31177 9.48053
RightShoulder  7.45443e-017 -2.42657e-020 1.96277e-018
RightArm  -25.3879 -15.0984 73.7485
RightForeArm  30.7205 7.00502 8.56092
RightHand  -1.18578 9.67096 -9.49374
LeftUpLeg  -9.00033 -0.520764 -3.41951
LeftLeg  8.37985 -4.16588 -0.981974
LeftFoot  -3.46737 -0.125026 2.13748
LeftToes  3.91355e-005 3.11907e-005 -4.10385e-006
460
root  11.9116 66.2042 30.4446 -4.10876 -21.2392 2.55985
RightUpLeg  0.304323 1.27503 -5.89532
RightLeg  35.1494 17.4946 12.6107
RightFoot  -8.30743 0.0227366 -2.96506
RightToes  2.84633e-005 7.89722e-005 -0.000426369
Spine  1.82464 1.00759 -1.63767
Spine1  3.44925 1.54803 -0.346099
HEad  27.1567 -6.72901 -4.12667
LeftShoulder1  -3.88251e-019 0 -3.92111e-022
LeftArm  -37.9375 8.07448 -82.3563
LeftForeArm  31.6712 1.95712 1.75156
LeftHand  -0.785455 -4.32729 9.65341
RightShoulder  7.45443e-017 -2.42657e-020 1.96277e-018
RightArm  -26.3931 -15.6117 73.2601
RightForeArm  30.9039 5.61265 7.24522
RightHand  -1.16566 9.36929 -9.51817
LeftUpLeg  -8.46936 -0.804664 -4.54225
LeftLeg  9.88506 -2.48077 -0.975983
LeftFoot  -5.29271 -0.13492 3.16489
LeftToes  3.91355e-005 3.11907e-005 -4.10385e-006
461
root  12.0613 66.0683 31.219 -4.28629 -22.9689 3.17802
RightUpLeg  -1.63454 -0.791206 -8.02053
RightLeg  40.0907 17.2528 14.7617
RightFoot  -6.10538 0.0404631 -1.78892
RightToes  2.84633e-005 7.89722e-005 -0.000426369
Spine  1.82229 1.18528 -1.98526
Spine1  3.42821 1.83226 -0.723381
HEad  26.6514 -7.65002 -4.14462
LeftShoulder1  -3.88251e-019 0 -3.92111e-022
LeftArm  -37.6747 7.32906 -82.356
LeftForeArm  31.7436 1.98144 1.31317
LeftHand  -0.806772 -4.36976 9.86614
RightShoulder  7.45443e-017 -2.42657e-020 1.96277e-018
RightArm  -26.8867 -15.6984 72.7964
RightForeArm  31.6836 3.92222 5.69826
RightHand  -1.15799 9.27514 -9.5154
LeftUpLeg  -8.02295 -0.912311 -5.5639
LeftLeg  11.1417 -0.424452 -0.817991
LeftFoot  -6.9127 -0.0987651 3.63028
LeftToes  3.91355e-005 3.11907e-005 -4.10385e-006
462
root  12.1811 65.9718 31.8814 -4.33857 -25.2905 3.64553
RightUpLeg  -4.58485 -2.27915 -9.51304
RightLeg  45.5782 16.0586 16.5692
RightFoot  -2.51723 0.0577597 -0.980847
RightToes  2.84633e-005 7.89722e-005 -0.000426369
Spine  1.76785 1.39874 -2.31107
Spine1  3.30913 2.20605 -1.00962
HEad  26.4708 -8.04142 -3.93597
LeftShoulder1  -3.88251e-019 0 -3.92111e-022
LeftArm  -37.1753 6.90586 -82.1861
LeftForeArm  32.0172 2.01471 0.76091
LeftHand  -0.797867 -4.34996 9.77945
RightShoulder  7.45443e-017 -2.42657e-020 1.96277e-018
RightArm  -27.2242 -15.3692 72.649
RightForeArm  32.096 2.50609 4.29144
RightHand  -1.18709 9.23476 -9.76885
LeftUpLeg  -7.69064 -0.863986 -6.27393
LeftLeg  12.0058 1.88632 -0.484275
LeftFoot  -8.34486 -0.047169 3.72169
LeftToes  3.91355e-005 3.11907e-005 -4.10385e-006
463
root  12.2726 65.9253 32.4527 -4.49001 -27.7365 3.80519
RightUpLeg  -7.88694 -3.15928 -10.07
RightLeg  50.4153 12.5108 15.3661
RightFoot  -0.37456 -0.0287418 0.291741
RightToes  2.84633e-005 7.89722e-005 -0.000426369
Spine  1.88708 1.47711 -2.64803
Spine1  3.54644 2.32189 -1.33374
HEad  26.2908 -8.30091 -3.26915
LeftShoulder1  -3.88251e-019 0 -3.92111e-022
LeftArm  -36.3927 6.20823 -81.6009
LeftForeArm  31.542 2.05222 0.444043
LeftHand  -0.790189 -4.41067 9.63211
RightShoulder  7.45443e-017 -2.42657e-020 1.96277e-018
RightArm  -27.5693 -14.496 72.966
RightForeArm  31.8071 2.02385 3.81151
RightHand  -1.19623 9.14633 -9.89656
LeftUpLeg  -7.17803 -0.901023 -6.77099
LeftLeg  12.6559 4.31113 0.203961
LeftFoot  -9.2228 -0.0124583 3.67069
LeftToes  3.91355e-005 3.11907e-005 -4.10385e-006
464
root  12.3423 65.9841 32.9749 -4.53811 -29.8271 3.30097
RightUpLeg  -10.6799 -4.08223 -9.57389
RightLeg  53.1428 7.28768 9.92269
RightFoot  -1.92795 -0.0897627 0.959213
RightToes  2.84633e-005 7.89722e-005 -0.000426369
Spine  2.09481 1.32649 -2.75403
Spine1  3.97344 1.98666 -1.22006
HEad  26.1905 -8.8621 -2.6427
LeftShoulder1  -3.88251e-019 0 -3.92111e-022
LeftArm  -35.6505 4.95213 -80.764
LeftForeArm  30.884 2.0717 0.397906
LeftHand  -0.815158 -4.56294 9.78264
RightShoulder  7.45443e-017 -2.42657e-020 1.96277e-018
RightArm  -27.5968 -13.769 73.2689
RightForeArm  31.1442 2.85502 4.63491
RightHand  -1.15668 9.21003 -9.54466
LeftUpLeg  -6.21718 -0.927551 -6.75199
LeftLeg  12.7544 6.45129 0.971071
LeftFoot  -9.70409 0.00944771 3.42931
LeftToes  3.91355e-005 3.11907e-005 -4.10385e-006
465
root  12.4041 66.1429 33.4487 -4.02832 -31.7276 2.08406
RightUpLeg  -12.9034 -4.87162 -8.09457
RightLeg  53.2352 3.11173 4.08773
RightFoot  -5.33205 -0.0192338 -0.371738
RightToes  2.84633e-005 7.89722e-005 -0.000426369
Spine  2.16807 1.06349 -2.43369
Spine1  4.15293 1.48285 -0.372442
HEad  26.3945 -9.61645 -2.6078
LeftShoulder1  -3.88251e-019 0 -3.92111e-022
LeftArm  -35.2464 3.63537 -80.2492
LeftForeArm  31.0721 2.05433 0.559655
LeftHand  -0.81357 -4.60701 9.72479
RightShoulder  7.45443e-017 -2.42657e-020 1.96277e-018
RightArm  -26.9883 -13.5888 73.066
RightForeArm  30.6835 4.63696 6.4143
RightHand  -1.11851 9.50578 -9.07298
LeftUpLeg  -5.12156 -0.788383 -6.12308
LeftLeg  12.077 8.22243 1.59573
LeftFoot  -9.8835 0.0156614 3.33374
LeftToes  3.91355e-005 3.11907e-005 -4.10385e-006
466
root  12.4571 66.2874 33.8578 -3.10996 -33.8754 0.823428
RightUpLeg  -14.9123 -5.11011 -6.27122
RightLeg  50.8574 1.01976 0.987491
RightFoot  -8.04073 -0.0132031 -1.43131
RightToes  2.84633e-005 7.89722e-005 -0.000426369
Spine  2.12182 0.814769 -1.92102
Spine1  4.11756 1.10534 0.597411
HEad  26.5422 -10.2758 -2.77109
LeftShoulder1  -3.88251e-019 0 -3.92111e-022
LeftArm  -35.1496 2.83152 -80.1794
LeftForeArm  31.5621 2.01749 0.883826
LeftHand  -0.750934 -4.5488 9.04994
RightShoulder  7.45443e-017 -2.42657e-020 1.96277e-018
RightArm  -25.998 -13.23 72.6736
RightForeArm  30.9119 6.33616 8.3574
RightHand  -1.14036 9.8015 -9.07306
LeftUpLeg  -4.40441 -0.665909 -5.50417
LeftLeg  11.2642 10.1486 2.29647
LeftFoot  -9.78317 0.00981633 3.41843
LeftToes  3.91355e-005 3.11907e-005 -4.10385e-006
467
root  12.4932 66.3557 34.2163 -2.26773 -36.2739 0.06921
RightUpLeg  -16.6944 -5.56941 -4.7002
RightLeg  46.5742 -0.297808 -0.652736
RightFoot  -9.35445 -0.0519353 -0.672641
RightToes  2.84633e-005 7.89722e-005 -0.000426369
Spine  2.04114 0.574735 -1.43742
Spine1  4.02491 0.804697 1.24029
HEad  26.2062 -10.8586 -2.74499
LeftShoulder1  -3.88251e-019 0 -3.92111e-022
LeftArm  -35.2985 2.53666 -80.1929
LeftForeArm  31.5179 2.0063 1.05229
LeftHand  -0.723352 -4.50442 8.76585
RightShoulder  7.45443e-017 -2.42657e-020 1.96277e-018
RightArm  -24.2788 -12.2615 72.6762
RightForeArm  30.753 7.41974 9.45071
RightHand  -1.19432 9.98427 -9.37616
LeftUpLeg  -4.06601 -0.765846 -5.34365
LeftLeg  10.7786 12.5957 3.10591
LeftFoot  -9.82425 0.0149888 3.34098
LeftToes  3.91355e-005 3.11907e-005 -4.10385e-006
468
root  12.5222 66.4092 34.551 -1.4626 -38.7127 -0.445832
RightUpLeg  -18.002 -7.22294 -3.14144
RightLeg  40.6873 -2.53689 -2.60955
RightFoot  -9.70226 -0.0610347 -0.346051
RightToes  2.84633e-005 7.89722e-005 -0.000426369
Spine  1.90915 0.366969 -0.887852
Spine1  3.82494 0.571551 1.79825
HEad  25.5264 -11.4324 -2.67787
LeftShoulder1  -3.88251e-019 0 -3.92111e-022
LeftArm  -35.4955 2.35816 -80.1445
LeftForeArm  31.2427 2.02167 0.934776
LeftHand  -0.802987 -4.42511 9.76732
RightShoulder  7.45443e-017 -2.42657e-020 1.96277e-018
RightArm  -23.3522 -11.0893 73.1025
RightForeArm  30.9371 7.61404 9.62387
RightHand  -1.20717 10.0724 -9.42165
LeftUpLeg  -3.82066 -0.996606 -5.39022
LeftLeg  10.2395 15.3317 3.81013
LeftFoot  -9.97949 0.0204807 3.33301
LeftToes  3.91355e-005 3.11907e-005 -4.10385e-006
469
root  12.5494 66.4948 34.8633 -0.400303 -41.2371 -1.16058
RightUpLeg  -18.643 -9.72545 -1.09836
RightLeg  33.3433 -6.3244 -4.70205
RightFoot  -9.87732 -0.0530535 -1.09877
RightToes  2.84633e-005 7.89722e-005 -0.000426369
Spine  1.76229 0.315711 -0.221942
Spine1  3.58049 0.612159 2.40322
HEad  24.8368 -11.9157 -2.59757
LeftShoulder1  -3.88251e-019 0 -3.92111e-022
LeftArm  -35.4659 2.00196 -80.2122
LeftForeArm  31.2624 2.029 0.835817
LeftHand  -0.873429 -4.3439 10.6818
RightShoulder  7.45443e-017 -2.42657e-020 1.96277e-018
RightArm  -23.8257 -9.84449 73.7666
RightForeArm  32.0591 6.81832 9.4612
RightHand  -1.1838 10.0118 -9.28176
LeftUpLeg  -3.5848 -1.20774 -5.29248
LeftLeg  9.3883 18.0807 4.32201
LeftFoot  -9.7709 0.00738252 3.73716
LeftToes  3.91355e-005 3.11907e-005 -4.10385e-006
470
root  12.5469 66.5835 35.1521 0.708699 -43.8573 -1.93007
RightUpLeg  -18.4631 -12.9824 1.42524
RightLeg  25.2014 -11.6722 -6.15623
RightFoot  -9.06114 -0.0338903 -1.43868
RightToes  2.84633e-005 7.89722e-005 -0.000426369
Spine  1.67852 0.407391 0.451486
Spine1  3.4353 0.862814 2.90053
HEad  24.3257 -12.293 -2.52166
LeftShoulder1  -3.88251e-019 0 -3.92111e-022
LeftArm  -35.3927 1.57677 -80.5224
LeftForeArm  31.4022 2.02255 0.875215
LeftHand  -0.82726 -4.40345 10.0752
RightShoulder  7.45443e-017 -2.42657e-020 1.96277e-018
RightArm  -24.5399 -8.45368 74.5068
RightForeArm  33.6413 5.45339 9.2106
RightHand  -1.164 9.91154 -9.18981
LeftUpLeg  -3.2955 -1.36344 -5.10847
LeftLeg  8.45266 20.8078 4.62196
LeftFoot  -9.37832 -0.0131777 4.0598
LeftToes  3.91355e-005 3.11907e-005 -4.10385e-006
471
root  12.4897 66.6443 35.4405 1.52196 -46.4386 -2.32375
RightUpLeg  -17.8585 -17.4719 3.94681
RightLeg  18.0719 -18.1875 -6.38633
RightFoot  -6.34477 0.0611499 -2.38504
RightToes  2.84633e-005 7.89722e-005 -0.000426369
Spine  1.58694 0.510164 0.985165
Spine1  3.24674 1.06918 3.21517
HEad  24.2677 -12.6891 -2.68394
LeftShoulder1  -3.88251e-019 0 -3.92111e-022
LeftArm  -35.5574 1.45455 -81.0252
LeftForeArm  31.4451 2.01854 0.911333
LeftHand  -0.764204 -4.51318 9.23521
RightShoulder  7.45443e-017 -2.42657e-020 1.96277e-018
RightArm  -24.2156 -7.41189 75.1435
RightForeArm  34.9691 4.47979 8.95207
RightHand  -1.15594 10.006 -9.07692
LeftUpLeg  -2.93549 -1.58144 -5.1726
LeftLeg  7.5684 23.6671 4.76567
LeftFoot  -9.17949 -0.0177442 3.86719
LeftToes  3.91355e-005 3.11907e-005 -4.10385e-006
